<?xml version="1.0" encoding="UTF-8"?>
<svg version="1.1" xmlns="http://www.w3.org/2000/svg" width="200" height="200">
<path d="M0 0 C24.58 -0.97 47.12 9.12 65.2 25.21 C82.25 41.35 91.77 63.5 92.87 86.8 C93.49 110.89 85.12 133.36 68.89 151.16 C68.27 151.87 67.65 152.57 67 153.3 C52.1 169.24 29.65 179.16 7.89 180.16 C7.2 180.21 6.51 180.26 5.8 180.32 C-8.78 180.92 -23.03 177.36 -36.11 171.16 C-37.09 170.7 -38.08 170.23 -39.09 169.75 C-46.2 166.14 -52.16 161.44 -58.11 156.16 C-58.82 155.53 -59.53 154.91 -60.26 154.26 C-76.95 138.59 -86.01 116.14 -87.08 93.52 C-87.7 69.43 -79.33 46.95 -63.11 29.16 C-62.42 28.38 -61.73 27.6 -61.03 26.8 C-45.3 9.9 -22.55 1.72 0 0 Z " fill="#EFEFEF" transform="translate(97.10546875,9.83984375)"/>
<path d="M0 0 C0 2.97 0 5.94 0 9 C-1.99 9.49 -3.97 9.98 -5.96 10.46 C-7.66 10.91 -9.33 11.44 -11 12 C-12.05 15.15 -12.15 17.47 -12.21 20.77 C-12.25 22.47 -12.25 22.47 -12.3 24.21 C-12.35 26.6 -12.39 28.99 -12.43 31.38 C-12.63 38.7 -12.87 44.03 -18.44 49.31 C-20.8 50.87 -22.3 51.42 -25 52 C-24.39 52.29 -23.77 52.58 -23.14 52.88 C-22.33 53.29 -21.52 53.7 -20.69 54.12 C-19.89 54.52 -19.09 54.91 -18.26 55.32 C-15.1 57.67 -14.29 59.23 -13 63 C-12.55 67.37 -12.49 71.73 -12.44 76.12 C-12.4 78.46 -12.36 80.8 -12.31 83.13 C-12.3 84.16 -12.28 85.19 -12.27 86.25 C-12 89.03 -11.49 90.67 -10 93 C-6.9 95.1 -3.67 95.5 0 96 C0 98.97 0 101.94 0 105 C-6.56 105.48 -11.37 104.49 -17 101 C-21.28 97.21 -23.77 92.72 -24.26 87.02 C-24.26 85.94 -24.27 84.86 -24.27 83.75 C-24.29 82.56 -24.31 81.38 -24.34 80.16 C-24.36 77.67 -24.38 75.19 -24.39 72.71 C-24.41 71.52 -24.44 70.34 -24.46 69.12 C-24.47 68.04 -24.48 66.96 -24.49 65.85 C-25.12 62.34 -26.24 61.18 -29 59 C-31.98 57.95 -34.87 57.55 -38 57 C-38 54.03 -38 51.06 -38 48 C-36.6 47.75 -35.2 47.5 -33.75 47.25 C-29.61 46.52 -27.66 45.28 -25 42 C-24.42 39.14 -24.42 39.14 -24.53 35.98 C-24.51 34.23 -24.51 34.23 -24.49 32.44 C-24.5 30 -24.5 27.55 -24.51 25.11 C-24.41 16.79 -23.81 10.81 -17.69 4.69 C-11.59 0.86 -7.06 -0.37 0 0 Z " fill="#F8771D" transform="translate(59,49)"/>
<path d="M0 0 C6.34 -0.55 11.42 0.93 17 4 C21.34 7.68 23.77 12.33 24.26 17.98 C24.26 19.6 24.26 19.6 24.27 21.25 C24.29 22.44 24.31 23.62 24.34 24.84 C24.36 27.33 24.38 29.81 24.39 32.29 C24.41 33.48 24.44 34.66 24.46 35.88 C24.47 36.96 24.48 38.04 24.49 39.15 C25.12 42.66 26.24 43.82 29 46 C31.98 47.05 34.87 47.45 38 48 C38 50.97 38 53.94 38 57 C36.6 57.25 35.19 57.5 33.75 57.75 C29.61 58.48 27.66 59.72 25 63 C24.42 65.86 24.42 65.86 24.53 69.02 C24.51 70.77 24.51 70.77 24.49 72.56 C24.5 75 24.5 77.45 24.51 79.89 C24.41 88.21 23.78 94.11 17.75 100.31 C11.9 103.9 6.85 105.43 0 105 C0 102.03 0 99.06 0 96 C0.7 95.83 1.4 95.66 2.12 95.48 C3.03 95.24 3.94 95 4.88 94.75 C5.78 94.52 6.68 94.29 7.62 94.05 C10.07 93.22 10.07 93.22 11.13 91.3 C12.2 88.47 12.26 86.16 12.27 83.13 C12.29 82 12.31 80.87 12.34 79.7 C12.36 77.32 12.38 74.95 12.39 72.57 C12.61 61.72 12.61 61.72 17 57 C18.92 55.36 20.81 54.29 23 53 C22.26 52.44 21.51 51.89 20.75 51.31 C17.13 48.27 14.51 45.52 13 41 C12.9 39.06 12.85 37.11 12.82 35.16 C12.8 34.01 12.78 32.87 12.75 31.69 C12.71 29.28 12.68 26.86 12.66 24.45 C12.63 23.3 12.6 22.15 12.57 20.97 C12.56 19.92 12.55 18.87 12.53 17.79 C11.87 14.34 10.71 13.17 8 11 C5.9 10.12 5.9 10.12 3.75 9.75 C2.51 9.5 1.28 9.26 0 9 C0 6.03 0 3.06 0 0 Z " fill="#F8771D" transform="translate(141,49)"/>
<path d="M0 0 C3.34 2.28 5.32 4.65 7.75 7.88 C6.36 11.24 4.77 12.86 1.75 14.88 C1.07 13.91 0.39 12.94 -0.31 11.94 C-2.36 9.55 -3.45 8.78 -6.44 7.44 C-12.71 8.16 -15.97 12.51 -20.25 16.88 C-21.18 17.79 -22.12 18.7 -23.08 19.63 C-28.98 24.78 -28.98 24.78 -31.5 31.75 C-31.41 34.81 -31.41 34.81 -30.31 37.25 C-27.44 39.51 -25.25 39.66 -21.64 39.55 C-18.54 38.67 -17.44 37.25 -15.38 34.81 C-12.03 30.96 -12.03 30.96 -8.3 30.57 C-5.56 30.84 -2.94 31.24 -0.25 31.88 C-13.47 47.67 -13.47 47.67 -22.41 49.26 C-28.02 49.7 -31.18 48.14 -35.52 44.68 C-39.26 40.78 -40.71 37.46 -40.81 32.06 C-40.86 31.09 -40.9 30.11 -40.94 29.11 C-39.24 21.14 -31.83 15.12 -26.25 9.56 C-25.56 8.86 -24.88 8.16 -24.17 7.44 C-16.92 0.18 -10.16 -3.52 0 0 Z " fill="#8A9BA7" transform="translate(105.25,84.125)"/>
<path d="M0 0 C4.67 3.25 9.17 6.73 10.42 12.54 C10.6 18.43 9.45 23.03 5.48 27.61 C3.83 29.3 2.15 30.94 0.44 32.56 C-3.37 36.22 -6.83 39.86 -10.12 44 C-15.57 48 -19.78 49.52 -26.48 49.48 C-31.13 48.63 -34.27 45.66 -37.12 42 C-37.84 39.77 -37.84 39.77 -38.12 38 C-36.14 36.35 -34.17 34.7 -32.12 33 C-31.02 34.53 -29.91 36.06 -28.8 37.59 C-26.27 39.71 -24.4 39.94 -21.12 40 C-18.3 38.46 -18.3 38.46 -15.75 36.06 C-14.8 35.23 -13.86 34.4 -12.88 33.55 C-3.56 25.87 -3.56 25.87 1.12 15.38 C0.95 12.85 0.95 12.85 -0.12 10 C-2.79 8.47 -4.81 8.01 -7.88 7.88 C-11.47 9.12 -12.73 10.46 -15.38 13.12 C-19.33 16.91 -19.33 16.91 -22.93 17.3 C-25.4 17.03 -27.72 16.64 -30.12 16 C-29.01 12.66 -28.13 11.9 -25.5 9.69 C-24.78 9.08 -24.07 8.47 -23.33 7.85 C-22.6 7.24 -21.87 6.63 -21.12 6 C-19.83 4.88 -18.54 3.75 -17.25 2.62 C-12.01 -1.93 -6.58 -2.1 0 0 Z " fill="#8A9AA7" transform="translate(125.125,64)"/>
</svg>
