<svg version="1.1" id="Layer_1" xmlns="http://www.w3.org/2000/svg" xmlns:xlink="http://www.w3.org/1999/xlink" x="0px" y="0px"
	 width="100%" viewBox="0 0 200 200" enable-background="new 0 0 200 200" xml:space="preserve">
<path opacity="0" stroke="none"
	d="
M201.000000,113.000000
	C201.000000,142.299347 201.000000,171.598694 201.000000,200.949020
	C134.444595,200.949020 67.889137,200.949020 1.000000,200.949020
	C1.000000,171.313278 1.000000,141.625290 1.327525,111.660141
	C3.267802,124.702835 6.752704,137.359161 13.551113,149.120193
	C23.524492,166.373871 36.885838,180.003708 54.622509,189.175705
	C70.050583,197.153900 86.385056,200.677063 103.861298,200.127045
	C118.326927,199.671768 132.011353,196.530807 144.893082,190.368256
	C160.021225,183.131058 172.667236,172.518204 182.404236,158.823059
	C191.086258,146.611710 197.683365,133.390823 199.318192,117.877579
	C199.678345,116.436447 199.748947,115.225372 199.881226,113.789337
	C199.942886,113.564384 200.015625,113.103577 200.259949,113.060814
	C200.504257,113.018051 201.000000,113.000000 201.000000,113.000000
z"/>
<path fill="#F37523" opacity="1.000000" stroke="none"
	d="
M200.015625,113.103577
	C200.015625,113.103577 199.942886,113.564384 199.770477,114.119736
	C199.408249,115.819275 199.218445,116.963455 199.028641,118.107635
	C197.683365,133.390823 191.086258,146.611710 182.404236,158.823059
	C172.667236,172.518204 160.021225,183.131058 144.893082,190.368256
	C132.011353,196.530807 118.326927,199.671768 103.861298,200.127045
	C86.385056,200.677063 70.050583,197.153900 54.622509,189.175705
	C36.885838,180.003708 23.524492,166.373871 13.551113,149.120193
	C6.752704,137.359161 3.267802,124.702835 1.327525,111.191483
	C1.000000,103.312424 1.000000,95.624847 1.332319,87.269455
	C4.512978,69.301682 10.692327,53.591316 21.627541,39.541981
	C35.082298,22.255594 52.157814,10.757304 72.824104,4.231045
	C76.823967,2.967918 80.938408,2.067651 85.000000,1.000000
	C95.020897,1.000000 105.041786,1.000000 115.744827,1.333083
	C119.498016,2.242175 122.610931,2.653228 125.633507,3.420262
	C150.014069,9.607279 169.406464,23.214323 183.721939,43.729679
	C191.898544,55.447506 197.668411,68.378357 199.122620,83.162994
	C199.397858,83.967125 199.599915,84.497421 199.862579,85.410767
	C199.955704,86.827385 199.988235,87.860962 200.049484,89.249344
	C200.385452,90.736099 200.692719,91.868050 201.000000,93.000000
	C201.000000,93.444443 201.000000,93.888893 200.858353,95.043274
	C200.811127,99.502144 200.905563,103.251068 201.000000,107.000000
	C201.000000,107.444443 201.000000,107.888893 200.855469,108.988556
	C200.479172,110.797050 200.247406,111.950317 200.015625,113.103577
M191.908585,121.183151
	C194.097733,110.078163 194.710754,98.993248 193.151688,87.669426
	C190.081482,65.369987 180.245468,46.366455 163.745148,31.666264
	C144.084045,14.150128 120.834282,5.585338 93.783897,7.751572
	C71.123573,9.566244 51.661610,18.214920 35.956577,33.858376
	C14.441674,55.288925 4.860041,81.468605 8.838655,112.270226
	C12.089647,137.438736 23.931427,157.793030 43.215454,173.393555
	C66.666145,192.364853 94.274040,198.089493 123.112617,190.565475
	C158.715851,181.276550 182.075256,158.117493 191.908585,121.183151
z"/>
<path opacity="0" stroke="none"
	d="
M200.020782,88.894531
	C199.988235,87.860962 199.955704,86.827385 199.906311,85.103600
	C199.609421,83.905312 199.329422,83.397240 199.049423,82.889160
	C197.668411,68.378357 191.898544,55.447506 183.721939,43.729679
	C169.406464,23.214323 150.014069,9.607279 125.633507,3.420262
	C122.610931,2.653228 119.498016,2.242175 116.213486,1.333083
	C144.261505,1.000000 172.523010,1.000000 201.000000,1.000000
	C201.000000,30.020538 201.000000,59.041611 200.753311,88.522491
	C200.506622,88.982292 200.020782,88.894531 200.020782,88.894531
z"/>
<path opacity="0" stroke="none"
	d="
M84.531342,1.000000
	C80.938408,2.067651 76.823967,2.967918 72.824104,4.231045
	C52.157814,10.757304 35.082298,22.255594 21.627541,39.541981
	C10.692327,53.591316 4.512978,69.301682 1.332319,86.800827
	C1.000000,58.407295 1.000000,29.814589 1.000000,1.000000
	C28.687166,1.000000 56.374924,1.000000 84.531342,1.000000
z"/>
<path fill="#E87931" opacity="1.000000" stroke="none"
	d="
M201.000000,106.539368
	C200.905563,103.251068 200.811127,99.502144 200.858353,95.376602
	C201.000000,98.692909 201.000000,102.385818 201.000000,106.539368
z"/>
<path fill="#E87931" opacity="1.000000" stroke="none"
	d="
M200.049484,89.249344
	C200.020782,88.894531 200.506622,88.982292 200.753311,88.991150
	C201.000000,90.066673 201.000000,91.133339 201.000000,92.600006
	C200.692719,91.868050 200.385452,90.736099 200.049484,89.249344
z"/>
<path fill="#E87931" opacity="1.000000" stroke="none"
	d="
M200.259949,113.060814
	C200.247406,111.950317 200.479172,110.797050 200.855469,109.321892
	C201.000000,110.066673 201.000000,111.133339 201.000000,112.600006
	C201.000000,113.000000 200.504257,113.018051 200.259949,113.060814
z"/>
<path fill="#E87931" opacity="1.000000" stroke="none"
	d="
M199.318192,117.877579
	C199.218445,116.963455 199.408249,115.819275 199.708817,114.344696
	C199.748947,115.225372 199.678345,116.436447 199.318192,117.877579
z"/>
<path opacity="0" stroke="none"
	d="
M191.749023,121.572357
	C182.075256,158.117493 158.715851,181.276550 123.112617,190.565475
	C94.274040,198.089493 66.666145,192.364853 43.215454,173.393555
	C23.931427,157.793030 12.089647,137.438736 8.838655,112.270226
	C4.860041,81.468605 14.441674,55.288925 35.956577,33.858376
	C51.661610,18.214920 71.123573,9.566244 93.783897,7.751572
	C120.834282,5.585338 144.084045,14.150128 163.745148,31.666264
	C180.245468,46.366455 190.081482,65.369987 193.151688,87.669426
	C194.710754,98.993248 194.097733,110.078163 191.749023,121.572357
M45.750050,118.832222
	C50.890152,122.507103 56.476917,124.218796 62.932587,124.045471
	C74.920639,123.723610 86.923508,123.961678 98.920197,123.950745
	C111.530060,123.939255 121.930855,115.091736 123.829544,102.779991
	C124.342201,99.455750 123.223335,97.318184 119.590134,97.142616
	C117.761215,97.054230 115.919563,97.191887 114.094635,97.067017
	C111.028282,96.857208 109.395592,97.587402 108.767822,101.209770
	C107.819374,106.682587 104.591576,108.791222 98.927147,109.037216
	C98.095543,109.073318 97.261154,109.046539 96.428055,109.046440
	C84.597984,109.045013 72.766602,109.147232 60.938381,108.998314
	C54.859516,108.921791 51.727821,105.072411 51.916130,98.544136
	C52.087910,92.589012 53.998329,90.962608 60.850727,90.942619
	C63.349873,90.935333 65.857445,91.062798 68.346321,90.900681
	C72.665695,90.619316 74.974342,87.813957 74.953033,83.262718
	C74.932655,78.909218 72.895126,76.288605 68.485420,76.106781
	C63.828049,75.914749 59.103271,75.639763 54.510487,76.216972
	C51.560997,76.587662 48.383545,77.893570 46.018600,79.706749
	C33.480286,89.319771 34.280113,109.494064 45.750050,118.832222
M79.414474,101.685196
	C82.094589,102.009743 84.779129,102.301811 87.453720,102.666824
	C91.006210,103.151634 93.512444,101.969635 93.742577,98.149948
	C94.039505,93.221687 97.589539,91.274956 101.347282,91.167511
	C114.981735,90.777641 128.640778,90.739731 142.275742,91.111580
	C148.235275,91.274109 150.485703,95.089500 150.079025,102.072266
	C149.768784,107.399200 147.771606,109.029785 141.548584,109.047722
	C138.719482,109.055878 135.664856,108.416290 133.128174,109.284683
	C130.836472,110.069199 128.099319,112.173233 127.395447,114.302559
	C126.542549,116.882729 125.565857,121.554420 129.868210,122.199249
	C136.546326,123.200150 143.837814,124.567390 150.100723,122.897263
	C161.150131,119.950714 167.033859,107.346153 164.839798,95.293251
	C162.850662,84.366165 152.894150,76.085922 141.608444,76.055511
	C128.460648,76.020088 115.298431,75.699593 102.172623,76.237930
	C97.642532,76.423721 92.740379,78.035973 88.819710,80.363579
	C81.025749,84.990669 77.033783,94.381989 79.414474,101.685196
z"/>
<path fill="#E87931" opacity="1.000000" stroke="none"
	d="
M199.122620,83.162994
	C199.329422,83.397240 199.609421,83.905312 199.845703,84.720551
	C199.599915,84.497421 199.397858,83.967125 199.122620,83.162994
z"/>
<path fill="#F8721C" opacity="1.000000" stroke="none"
	d="
M45.442825,118.637894
	C34.280113,109.494064 33.480286,89.319771 46.018600,79.706749
	C48.383545,77.893570 51.560997,76.587662 54.510487,76.216972
	C59.103271,75.639763 63.828049,75.914749 68.485420,76.106781
	C72.895126,76.288605 74.932655,78.909218 74.953033,83.262718
	C74.974342,87.813957 72.665695,90.619316 68.346321,90.900681
	C65.857445,91.062798 63.349873,90.935333 60.850727,90.942619
	C53.998329,90.962608 52.087910,92.589012 51.916130,98.544136
	C51.727821,105.072411 54.859516,108.921791 60.938381,108.998314
	C72.766602,109.147232 84.597984,109.045013 96.428055,109.046440
	C97.261154,109.046539 98.095543,109.073318 98.927147,109.037216
	C104.591576,108.791222 107.819374,106.682587 108.767822,101.209770
	C109.395592,97.587402 111.028282,96.857208 114.094635,97.067017
	C115.919563,97.191887 117.761215,97.054230 119.590134,97.142616
	C123.223335,97.318184 124.342201,99.455750 123.829544,102.779991
	C121.930855,115.091736 111.530060,123.939255 98.920197,123.950745
	C86.923508,123.961678 74.920639,123.723610 62.932587,124.045471
	C56.476917,124.218796 50.890152,122.507103 45.442825,118.637894
z"/>
<path fill="#F8721B" opacity="1.000000" stroke="none"
	d="
M79.147919,101.423370
	C77.033783,94.381989 81.025749,84.990669 88.819710,80.363579
	C92.740379,78.035973 97.642532,76.423721 102.172623,76.237930
	C115.298431,75.699593 128.460648,76.020088 141.608444,76.055511
	C152.894150,76.085922 162.850662,84.366165 164.839798,95.293251
	C167.033859,107.346153 161.150131,119.950714 150.100723,122.897263
	C143.837814,124.567390 136.546326,123.200150 129.868210,122.199249
	C125.565857,121.554420 126.542549,116.882729 127.395447,114.302559
	C128.099319,112.173233 130.836472,110.069199 133.128174,109.284683
	C135.664856,108.416290 138.719482,109.055878 141.548584,109.047722
	C147.771606,109.029785 149.768784,107.399200 150.079025,102.072266
	C150.485703,95.089500 148.235275,91.274109 142.275742,91.111580
	C128.640778,90.739731 114.981735,90.777641 101.347282,91.167511
	C97.589539,91.274956 94.039505,93.221687 93.742577,98.149948
	C93.512444,101.969635 91.006210,103.151634 87.453720,102.666824
	C84.779129,102.301811 82.094589,102.009743 79.147919,101.423370
z"/>
</svg>
