<?xml version="1.0" encoding="UTF-8" standalone="no"?>
<svg
   version="1.1"
   id="Layer_1"
   x="0px"
   y="0px"
   width="100%"
   viewBox="0 0 200 200"
   enable-background="new 0 0 200 200"
   xml:space="preserve"
   sodipodi:docname="Logo_symbol.svg"
   inkscape:version="1.4 (e7c3feb100, 2024-10-09)"
   inkscape:export-filename="Logo_symbol.png"
   inkscape:export-xdpi="96"
   inkscape:export-ydpi="96"
   xmlns:inkscape="http://www.inkscape.org/namespaces/inkscape"
   xmlns:sodipodi="http://sodipodi.sourceforge.net/DTD/sodipodi-0.dtd"
   xmlns="http://www.w3.org/2000/svg"
   xmlns:svg="http://www.w3.org/2000/svg"><defs
   id="defs12" /><sodipodi:namedview
   id="namedview12"
   pagecolor="#ffffff"
   bordercolor="#000000"
   borderopacity="0.25"
   inkscape:showpageshadow="2"
   inkscape:pageopacity="0.0"
   inkscape:pagecheckerboard="0"
   inkscape:deskcolor="#d1d1d1"
   showgrid="false"
   inkscape:lockguides="false"
   showguides="false"
   inkscape:zoom="2.9415642"
   inkscape:cx="43.684241"
   inkscape:cy="90.428079"
   inkscape:window-width="1920"
   inkscape:window-height="1043"
   inkscape:window-x="0"
   inkscape:window-y="0"
   inkscape:window-maximized="1"
   inkscape:current-layer="Layer_1" />
<path
   opacity="0"
   stroke="none"
   d=" M201.000000,113.000000  C201.000000,142.299347 201.000000,171.598694 201.000000,200.949020  C134.444595,200.949020 67.889137,200.949020 1.000000,200.949020  C1.000000,171.313278 1.000000,141.625290 1.327525,111.660141  C3.267802,124.702835 6.752704,137.359161 13.551113,149.120193  C23.524492,166.373871 36.885838,180.003708 54.622509,189.175705  C70.050583,197.153900 86.385056,200.677063 103.861298,200.127045  C118.326927,199.671768 132.011353,196.530807 144.893082,190.368256  C160.021225,183.131058 172.667236,172.518204 182.404236,158.823059  C191.086258,146.611710 197.683365,133.390823 199.318192,117.877579  C199.678345,116.436447 199.748947,115.225372 199.881226,113.789337  C199.942886,113.564384 200.015625,113.103577 200.259949,113.060814  C200.504257,113.018051 201.000000,113.000000 201.000000,113.000000 z"
   id="path1" />
<path
   fill="#F8721C"
   opacity="1"
   stroke="none"
   d="m 196.69336,117.39951 c -3.07454,14.88997 -8.51351,27.84315 -16.99518,39.80725 -9.51228,13.41784 -21.86639,23.8158 -36.64537,30.90647 -12.58445,6.03777 -25.95309,9.11514 -40.08483,9.56119 -17.072906,0.53889 -33.030386,-2.91295 -48.102391,-10.7296 C 37.53827,177.95855 24.485294,164.60468 14.742096,147.70035 8.1005903,136.17746 4.696118,123.77739 2.8006213,110.53962 2.4806553,102.8201 2.4806553,95.288175 2.8053046,87.101964 5.9125556,69.498003 11.94929,54.105739 22.632124,40.340874 35.776355,23.404501 52.457779,12.139028 72.6471,5.7449129 76.554653,4.5073617 80.574136,3.6253232 84.541985,2.57929 c 9.789618,0 19.579255,0 30.035285,0.3263387 3.66656,0.8906848 6.7076,1.2934148 9.66044,2.0449179 23.81783,6.0617424 42.76267,19.3932714 56.74775,39.4932344 10.04821,12.145014 12.47465,24.857085 15.09757,35.309123 1.63265,10.738404 2.40799,22.009426 0.55082,37.757986 m -7.65064,2.8181 c 2.13859,-10.88015 2.73751,-21.740615 1.21442,-32.835153 C 187.19824,65.645918 177.58924,47.027168 161.46978,32.624624 142.26241,15.463155 119.54924,7.0717843 93.123155,9.1941565 70.985818,10.972085 51.973025,19.445642 36.630458,34.77235 15.612107,55.768975 6.2516086,81.41857 10.138399,111.59653 c 3.17596,24.65891 14.744442,44.60106 33.583405,59.88569 22.909464,18.58717 49.880182,24.19591 78.053186,16.82423 34.78152,-9.10083 57.60184,-31.79097 67.20822,-67.97746 z"
   id="path2"
   style="fill:#F8721C;fill-opacity:1;stroke:#F8721C;stroke-width:2.85058;stroke-dasharray:none;stroke-opacity:1"
   sodipodi:nodetypes="cssscsccsscccscccccsssssc" />
<path
   opacity="0"
   stroke="none"
   d=" M200.020782,88.894531  C199.988235,87.860962 199.955704,86.827385 199.906311,85.103600  C199.609421,83.905312 199.329422,83.397240 199.049423,82.889160  C197.668411,68.378357 191.898544,55.447506 183.721939,43.729679  C169.406464,23.214323 150.014069,9.607279 125.633507,3.420262  C122.610931,2.653228 119.498016,2.242175 116.213486,1.333083  C144.261505,1.000000 172.523010,1.000000 201.000000,1.000000  C201.000000,30.020538 201.000000,59.041611 200.753311,88.522491  C200.506622,88.982292 200.020782,88.894531 200.020782,88.894531 z"
   id="path3" />
<path
   opacity="0"
   stroke="none"
   d=" M84.531342,1.000000  C80.938408,2.067651 76.823967,2.967918 72.824104,4.231045  C52.157814,10.757304 35.082298,22.255594 21.627541,39.541981  C10.692327,53.591316 4.512978,69.301682 1.332319,86.800827  C1.000000,58.407295 1.000000,29.814589 1.000000,1.000000  C28.687166,1.000000 56.374924,1.000000 84.531342,1.000000 z"
   id="path4" />




<path
   opacity="0"
   stroke="none"
   d=" M191.749023,121.572357  C182.075256,158.117493 158.715851,181.276550 123.112617,190.565475  C94.274040,198.089493 66.666145,192.364853 43.215454,173.393555  C23.931427,157.793030 12.089647,137.438736 8.838655,112.270226  C4.860041,81.468605 14.441674,55.288925 35.956577,33.858376  C51.661610,18.214920 71.123573,9.566244 93.783897,7.751572  C120.834282,5.585338 144.084045,14.150128 163.745148,31.666264  C180.245468,46.366455 190.081482,65.369987 193.151688,87.669426  C194.710754,98.993248 194.097733,110.078163 191.749023,121.572357 M45.750050,118.832222  C50.890152,122.507103 56.476917,124.218796 62.932587,124.045471  C74.920639,123.723610 86.923508,123.961678 98.920197,123.950745  C111.530060,123.939255 121.930855,115.091736 123.829544,102.779991  C124.342201,99.455750 123.223335,97.318184 119.590134,97.142616  C117.761215,97.054230 115.919563,97.191887 114.094635,97.067017  C111.028282,96.857208 109.395592,97.587402 108.767822,101.209770  C107.819374,106.682587 104.591576,108.791222 98.927147,109.037216  C98.095543,109.073318 97.261154,109.046539 96.428055,109.046440  C84.597984,109.045013 72.766602,109.147232 60.938381,108.998314  C54.859516,108.921791 51.727821,105.072411 51.916130,98.544136  C52.087910,92.589012 53.998329,90.962608 60.850727,90.942619  C63.349873,90.935333 65.857445,91.062798 68.346321,90.900681  C72.665695,90.619316 74.974342,87.813957 74.953033,83.262718  C74.932655,78.909218 72.895126,76.288605 68.485420,76.106781  C63.828049,75.914749 59.103271,75.639763 54.510487,76.216972  C51.560997,76.587662 48.383545,77.893570 46.018600,79.706749  C33.480286,89.319771 34.280113,109.494064 45.750050,118.832222 M79.414474,101.685196  C82.094589,102.009743 84.779129,102.301811 87.453720,102.666824  C91.006210,103.151634 93.512444,101.969635 93.742577,98.149948  C94.039505,93.221687 97.589539,91.274956 101.347282,91.167511  C114.981735,90.777641 128.640778,90.739731 142.275742,91.111580  C148.235275,91.274109 150.485703,95.089500 150.079025,102.072266  C149.768784,107.399200 147.771606,109.029785 141.548584,109.047722  C138.719482,109.055878 135.664856,108.416290 133.128174,109.284683  C130.836472,110.069199 128.099319,112.173233 127.395447,114.302559  C126.542549,116.882729 125.565857,121.554420 129.868210,122.199249  C136.546326,123.200150 143.837814,124.567390 150.100723,122.897263  C161.150131,119.950714 167.033859,107.346153 164.839798,95.293251  C162.850662,84.366165 152.894150,76.085922 141.608444,76.055511  C128.460648,76.020088 115.298431,75.699593 102.172623,76.237930  C97.642532,76.423721 92.740379,78.035973 88.819710,80.363579  C81.025749,84.990669 77.033783,94.381989 79.414474,101.685196 z"
   id="path9" />

<path
   fill="#F8721C"
   opacity="1.000000"
   stroke="none"
   d=" M45.442825,118.637894  C34.280113,109.494064 33.480286,89.319771 46.018600,79.706749  C48.383545,77.893570 51.560997,76.587662 54.510487,76.216972  C59.103271,75.639763 63.828049,75.914749 68.485420,76.106781  C72.895126,76.288605 74.932655,78.909218 74.953033,83.262718  C74.974342,87.813957 72.665695,90.619316 68.346321,90.900681  C65.857445,91.062798 63.349873,90.935333 60.850727,90.942619  C53.998329,90.962608 52.087910,92.589012 51.916130,98.544136  C51.727821,105.072411 54.859516,108.921791 60.938381,108.998314  C72.766602,109.147232 84.597984,109.045013 96.428055,109.046440  C97.261154,109.046539 98.095543,109.073318 98.927147,109.037216  C104.591576,108.791222 107.819374,106.682587 108.767822,101.209770  C109.395592,97.587402 111.028282,96.857208 114.094635,97.067017  C115.919563,97.191887 117.761215,97.054230 119.590134,97.142616  C123.223335,97.318184 124.342201,99.455750 123.829544,102.779991  C121.930855,115.091736 111.530060,123.939255 98.920197,123.950745  C86.923508,123.961678 74.920639,123.723610 62.932587,124.045471  C56.476917,124.218796 50.890152,122.507103 45.442825,118.637894 z"
   id="path11" />
<path
   fill="#f8721c"
   opacity="1"
   stroke="none"
   d="m 88.81971,80.363579 c 3.920668,-2.327608 8.822822,-3.939858 13.35291,-4.125649 13.12581,-0.538337 26.28803,-0.217842 39.43582,-0.182419 11.28571,0.03041 21.24222,8.310654 23.23136,19.23774 2.19406,12.052899 -3.68967,24.657459 -14.73908,27.604009 -6.26291,1.67013 -16.9831,1.17163 -19.93203,-0.8783 -3.57212,-2.48314 -4.17057,-5.3857 -2.77324,-7.7164 3.3755,-5.63022 3.75798,-2.72789 6.20068,-2.28793 3.81361,0.68689 6.21961,0.34979 9.15437,-0.0343 4.4272,-0.57938 5.70507,-0.54899 8.65314,-3.79994 0.83553,-0.92136 2.69546,-4.57455 2.85925,-6.95688 0.12135,-1.765193 0.43567,-4.927821 -1.11491,-7.647162 -1.84261,-3.23149 -2.5777,-5.21328 -7.81868,-6.632787 -6.65677,-1.802968 -9.02669,-0.91947 -21.15791,-0.754133 -3.29084,0.04485 -10.49741,0.239108 -15.44113,0.360226 -5.71105,0.139917 -6.71836,0.04434 -8.72908,0.823384 -1.77872,0.689157 -2.75423,0.786521 -5.239237,3.479644 -1.007904,1.092315 -1.484453,2.507221 -1.019366,7.297235 0.368503,3.795273 -2.733042,4.952903 -5.438969,5.026813 -9.781002,0.26715 -6.820379,-18.457686 0.516102,-22.813181 z"
   id="path12"
   sodipodi:nodetypes="sssssssssssssssssssss" />
</svg>
